<?xml version="1.0" standalone="no"?>
<!DOCTYPE svg PUBLIC "-//W3C//DTD SVG 20010904//EN"
 "http://www.w3.org/TR/2001/REC-SVG-20010904/DTD/svg10.dtd">
<svg version="1.0" xmlns="http://www.w3.org/2000/svg"
 width="186.000000pt" height="160.000000pt" viewBox="0 0 186.000000 160.000000"
 preserveAspectRatio="xMidYMid meet">
<metadata>
Created by potrace 1.15, written by Peter Selinger 2001-2017
</metadata>
<g transform="translate(0.000000,160.000000) scale(0.100000,-0.100000)"
fill="#000000" stroke="none">
<path d="M947 1525 c-91 -18 -132 -45 -164 -109 -30 -58 -36 -147 -14 -224 10
-36 19 -46 61 -67 27 -14 51 -25 54 -25 2 0 -9 32 -26 71 -51 122 -48 227 9
281 28 27 122 58 175 58 16 0 91 -32 168 -70 77 -39 175 -82 217 -95 88 -29
199 -41 258 -28 38 9 36 10 -41 16 -150 13 -297 62 -444 147 -66 38 -128 61
-165 59 -11 0 -51 -7 -88 -14z"/>
<path d="M730 1510 c-117 -16 -230 -78 -308 -168 -114 -134 -113 -137 30 -145
61 -4 113 -5 115 -3 2 2 -28 8 -68 14 -39 6 -73 13 -76 15 -10 11 42 93 91
145 66 70 140 108 231 117 77 8 139 36 75 34 -19 -1 -60 -5 -90 -9z"/>
<path d="M1017 1363 c-20 -19 -3 -28 47 -25 40 3 67 -2 103 -18 133 -60 217
-79 438 -98 l90 -8 -60 -19 c-91 -30 -354 -28 -487 3 -116 26 -103 26 -122 6
-21 -20 -21 -41 -1 -24 20 17 105 7 140 -16 18 -12 58 -19 133 -24 l107 -6
-38 -17 c-54 -25 -193 -42 -224 -28 -13 6 -37 11 -53 11 -23 0 -30 -5 -30 -20
0 -36 -43 -53 -116 -46 l-65 7 7 -26 6 -25 -78 39 c-135 67 -292 101 -468 101
l-99 0 24 26 24 26 -25 -7 c-47 -13 -140 -58 -151 -72 -9 -11 -7 -19 12 -39
24 -26 172 -124 186 -124 4 0 18 16 31 36 19 29 26 33 38 23 8 -6 17 -29 20
-51 7 -43 19 -51 106 -69 60 -13 115 2 130 37 9 19 19 24 51 24 23 0 50 -8 68
-21 16 -11 39 -19 51 -17 21 3 23 -1 22 -46 -1 -58 -10 -67 -102 -95 -38 -11
-82 -33 -102 -51 l-35 -30 30 7 c17 5 58 8 93 8 52 0 66 -4 78 -20 26 -36 29
-67 7 -84 -15 -12 -18 -25 -15 -57 5 -57 -10 -81 -61 -95 -49 -14 -225 -16
-382 -5 l-110 8 19 -21 c10 -11 44 -27 75 -36 144 -41 201 -81 221 -154 9 -35
14 -39 47 -43 26 -3 40 1 52 14 8 10 26 18 39 18 12 0 39 7 59 15 55 23 68 19
140 -43 38 -32 75 -61 83 -64 8 -3 43 6 77 18 l63 24 26 -29 c24 -28 74 -48
74 -30 0 5 -15 46 -34 91 -43 103 -64 183 -72 276 -6 65 -5 72 10 66 14 -5 15
-3 6 20 -12 32 -4 33 28 4 23 -21 25 -22 17 -3 -16 43 -18 58 -7 51 8 -5 12 0
12 13 0 13 9 21 30 26 45 10 38 34 -31 100 -54 53 -99 115 -83 115 15 0 106
-75 143 -116 l40 -45 -10 35 c-7 26 -6 49 6 91 9 30 15 82 14 116 l-3 60 53
25 c29 14 55 32 58 40 3 8 10 14 16 14 6 0 29 8 51 18 23 10 80 26 128 36 112
21 139 32 145 56 3 11 9 20 13 20 12 0 80 66 80 77 0 5 -28 -4 -62 -21 -58
-29 -70 -31 -163 -30 -115 1 -232 26 -398 85 -102 37 -165 48 -180 32z"/>
</g>
</svg>
